<svg width="251" height="44" viewBox="0 0 251 44" fill="none" xmlns="http://www.w3.org/2000/svg">
<path d="M17.292 16.9259L20.3044 13.9559C20.6366 13.6245 20.9001 13.2309 21.0798 12.7976C21.2596 12.3643 21.3522 11.8997 21.3522 11.4306C21.3522 10.9614 21.2596 10.4969 21.0798 10.0636C20.9001 9.63025 20.6366 9.23664 20.3044 8.90529C19.6344 8.23607 18.7261 7.86017 17.7791 7.86017C16.8322 7.86017 15.9239 8.23607 15.2539 8.90529L5.30672 18.7927C4.62033 19.4781 4.0758 20.2921 3.70428 21.1881C3.33275 22.0841 3.14152 23.0446 3.14152 24.0146C3.14152 24.9846 3.33275 25.945 3.70428 26.8411C4.0758 27.7371 4.62033 28.5511 5.30672 29.2364C6.06301 29.9928 6.97473 30.5758 7.9787 30.9448C8.98267 31.3138 10.0549 31.4601 11.121 31.3736C11.4825 32.3187 12.1224 33.1318 12.956 33.7054C13.7897 34.2789 14.7778 34.5858 15.7897 34.5856L29.557 34.5856C30.8842 34.5864 32.1575 34.0608 33.0976 33.1239C34.0376 32.1871 34.5677 30.9156 34.5714 29.5884L34.5714 26.6593C35.5623 26.8022 36.5734 26.672 37.4957 26.2827C38.418 25.8934 39.2165 25.2597 39.8052 24.45C40.3939 23.6402 40.7505 22.6852 40.8364 21.6878C40.9224 20.6904 40.7344 19.6884 40.2929 18.7899C39.8514 17.8914 39.173 17.1305 38.3309 16.5891C37.4887 16.0478 36.5148 15.7466 35.5141 15.7179C34.5134 15.6892 33.5239 15.9343 32.6522 16.4265C31.7805 16.9188 31.0597 17.6397 30.5674 18.5114C29.2564 17.7102 27.7494 17.2871 26.213 17.2889L19.1337 17.2889C18.6529 17.2889 18.1783 17.3313 17.7179 17.4099C17.5847 17.2414 17.4431 17.0799 17.2936 16.9259L17.292 16.9259ZM16.918 10.5726C17.1461 10.3448 17.4552 10.2168 17.7776 10.2168C18.0999 10.2168 18.4091 10.3448 18.6371 10.5726C18.75 10.6848 18.8395 10.8181 18.9008 10.9649C18.962 11.1118 18.9937 11.2693 18.9939 11.4284C18.9942 11.5875 18.9632 11.745 18.9025 11.8921C18.8418 12.0392 18.7527 12.1728 18.6403 12.2854L18.6371 12.287L13.574 17.2857L15.1517 18.1924C15.5383 18.4423 15.9531 18.9279 16.17 19.3129L16.6241 20.119L17.5151 19.8691C18.0421 19.7224 18.5867 19.6484 19.1337 19.6491L26.213 19.6492C27.8009 19.6479 29.3246 20.2765 30.4496 21.3972C31.5747 22.5178 32.2093 24.0389 32.2143 25.6269L32.2143 29.5869C32.2143 31.0373 31.0231 32.2269 29.5586 32.2269L22 32.2269L22 31.713C22 30.2563 23.1833 29.073 24.6447 29.073L27.1134 29.073C27.426 29.073 27.7258 28.9488 27.9468 28.7278C28.1678 28.5068 28.292 28.207 28.292 27.8944C28.292 27.5819 28.1678 27.2821 27.9468 27.0611C27.7258 26.84 27.426 26.7159 27.1134 26.7159L24.6447 26.7159C23.9883 26.7157 23.3382 26.8448 22.7317 27.0958C22.1251 27.3468 21.574 27.7148 21.1096 28.1788C20.6453 28.6429 20.2769 29.1938 20.0255 29.8002C19.7741 30.4066 19.6446 31.0566 19.6444 31.713L19.6444 32.2269L15.7897 32.2269C15.1447 32.227 14.522 31.991 14.0391 31.5634C13.5562 31.1358 13.2465 30.5462 13.1686 29.9059L13.013 28.5859L11.7213 28.8986C10.8821 29.1023 10.0047 29.0868 9.1733 28.8534C8.3419 28.6201 7.58453 28.1767 6.974 27.566C6.50703 27.0997 6.13653 26.5459 5.8837 25.9363C5.63087 25.3267 5.50066 24.6733 5.50052 24.0133C5.50037 23.3534 5.63029 22.6999 5.88285 22.0902C6.13542 21.4805 6.50566 20.9265 6.97243 20.46L6.97243 20.4584L16.9196 10.571L16.918 10.5726ZM32.4343 20.0609C32.6583 19.4932 33.0428 19.003 33.5408 18.6502C34.0387 18.2974 34.6286 18.0972 35.2385 18.0741C35.8483 18.0509 36.4517 18.2058 36.975 18.5199C37.4982 18.8339 37.9188 19.2935 38.1852 19.8425C38.4516 20.3916 38.5525 21.0063 38.4754 21.6117C38.3983 22.2171 38.1466 22.7869 37.7511 23.2517C37.3555 23.7164 36.8332 24.0559 36.2479 24.2288C35.6627 24.4017 35.0397 24.4004 34.4551 24.2252C34.19 22.6735 33.4892 21.2293 32.4343 20.0609V20.0609Z" fill="#001487"/>
<line x1="40" y1="31" x2="56" y2="31" stroke="#001487" stroke-width="2"/>
<path d="M173.5 38.5C174.052 38.5 174.5 38.0523 174.5 37.5C174.5 36.9477 174.052 36.5 173.5 36.5V38.5ZM36.5 37.5V38.5H173.5V37.5V36.5H36.5V37.5Z" fill="#001487"/>
<path d="M77.8188 20.688C77.8188 22.092 77.7228 23.442 77.5308 24.738C77.3388 26.034 76.9548 27.246 76.3788 28.374C75.8148 29.502 74.9628 30.51 73.8228 31.398C73.2708 31.83 72.6048 32.178 71.8248 32.442C71.0568 32.706 70.2708 32.898 69.4668 33.018C68.6628 33.138 67.9248 33.198 67.2528 33.198C66.2328 33.198 65.2368 33.192 64.2648 33.18C63.3048 33.168 62.3388 33.15 61.3668 33.126C60.4068 33.102 59.4048 33.078 58.3608 33.054L58.1088 32.82V8.592L58.3608 8.358C59.3928 8.322 60.3888 8.292 61.3488 8.268C62.3208 8.244 63.2928 8.232 64.2648 8.232C65.2368 8.22 66.2328 8.214 67.2528 8.214C67.9248 8.214 68.6628 8.274 69.4668 8.394C70.2828 8.514 71.0748 8.706 71.8428 8.97C72.6228 9.234 73.2828 9.582 73.8228 10.014C74.9508 10.902 75.7968 11.91 76.3608 13.038C76.9368 14.166 77.3208 15.378 77.5128 16.674C77.7168 17.958 77.8188 19.296 77.8188 20.688ZM72.1848 20.688C72.1848 19.752 72.1248 18.804 72.0048 17.844C71.8968 16.884 71.6748 16.002 71.3388 15.198C71.0028 14.382 70.5048 13.728 69.8448 13.236C69.1968 12.744 68.3328 12.498 67.2528 12.498C66.6288 12.498 66.0288 12.498 65.4528 12.498C64.8768 12.486 64.2528 12.474 63.5808 12.462V28.932C64.2528 28.92 64.8768 28.914 65.4528 28.914C66.0288 28.914 66.6288 28.914 67.2528 28.914C68.3328 28.914 69.1968 28.668 69.8448 28.176C70.5048 27.672 71.0028 27.018 71.3388 26.214C71.6748 25.398 71.8968 24.51 72.0048 23.55C72.1248 22.578 72.1848 21.624 72.1848 20.688ZM87.541 8.412C87.985 8.352 88.513 8.304 89.125 8.268C89.737 8.232 90.271 8.214 90.727 8.214C91.171 8.214 91.699 8.232 92.311 8.268C92.935 8.304 93.463 8.364 93.895 8.448L101.689 32.64C101.305 32.856 100.813 33.018 100.213 33.126C99.613 33.246 99.049 33.306 98.521 33.306C97.657 33.306 96.979 33.108 96.487 32.712C95.995 32.304 95.581 31.512 95.245 30.336L92.491 20.742C92.203 19.722 91.873 18.546 91.501 17.214C91.141 15.882 90.817 14.634 90.529 13.47H90.313C90.133 14.442 89.869 15.558 89.521 16.818C89.185 18.066 88.879 19.158 88.603 20.094L84.751 33.036C84.415 33.12 84.049 33.174 83.653 33.198C83.257 33.222 82.849 33.234 82.429 33.234C82.009 33.234 81.541 33.204 81.025 33.144C80.509 33.084 80.089 32.994 79.765 32.874L79.567 32.586L87.541 8.412ZM87.865 27.744C87.697 27.744 87.493 27.744 87.253 27.744C87.013 27.732 86.773 27.726 86.533 27.726C86.305 27.714 86.107 27.708 85.939 27.708H83.077L84.769 23.406H87.271C87.439 23.406 87.637 23.406 87.865 23.406C88.093 23.394 88.321 23.388 88.549 23.388C88.777 23.376 88.969 23.37 89.125 23.37H91.879C92.047 23.37 92.245 23.376 92.473 23.388C92.701 23.388 92.929 23.394 93.157 23.406C93.385 23.406 93.583 23.406 93.751 23.406H96.343L97.729 27.708H94.885C94.717 27.708 94.513 27.714 94.273 27.726C94.033 27.726 93.793 27.732 93.553 27.744C93.325 27.744 93.127 27.744 92.959 27.744H87.865ZM104.921 8.412C105.353 8.328 105.833 8.274 106.361 8.25C106.901 8.226 107.339 8.214 107.675 8.214C108.047 8.214 108.485 8.226 108.989 8.25C109.505 8.274 109.985 8.328 110.429 8.412V33C109.985 33.084 109.505 33.138 108.989 33.162C108.485 33.186 108.047 33.198 107.675 33.198C107.339 33.198 106.901 33.186 106.361 33.162C105.833 33.138 105.353 33.084 104.921 33V8.412ZM121.553 33.09H119.231C118.259 33.09 117.485 32.808 116.909 32.244C116.333 31.668 116.045 30.876 116.045 29.868V8.43L116.297 8.178H118.313C119.381 8.178 120.185 8.454 120.725 9.006C121.277 9.558 121.553 10.446 121.553 11.67V33.09ZM131.273 28.356C131.273 30.108 130.991 31.338 130.427 32.046C129.863 32.742 128.903 33.09 127.547 33.09H119.231L116.297 29.112C117.809 28.848 119.309 28.656 120.797 28.536C122.297 28.416 123.665 28.356 124.901 28.356H131.273ZM138.924 22.11H144.432V33C143.988 33.084 143.514 33.138 143.01 33.162C142.518 33.186 142.086 33.198 141.714 33.198C141.378 33.198 140.94 33.186 140.4 33.162C139.86 33.138 139.368 33.084 138.924 33V22.11ZM146.232 8.412C146.616 8.328 146.994 8.274 147.366 8.25C147.738 8.226 148.104 8.214 148.464 8.214C148.932 8.214 149.406 8.244 149.886 8.304C150.366 8.364 150.792 8.46 151.164 8.592L151.38 8.898L144.144 26.088H139.284L131.976 9.06C132.468 8.784 133.008 8.562 133.596 8.394C134.184 8.214 134.766 8.124 135.342 8.124C136.122 8.124 136.722 8.298 137.142 8.646C137.562 8.994 137.928 9.558 138.24 10.338L140.112 14.982C140.4 15.726 140.682 16.524 140.958 17.376C141.234 18.228 141.492 19.122 141.732 20.058H141.93C142.086 19.47 142.26 18.87 142.452 18.258C142.644 17.646 142.842 17.046 143.046 16.458C143.262 15.87 143.472 15.318 143.676 14.802L146.232 8.412ZM181.776 20.688C181.776 22.092 181.68 23.442 181.488 24.738C181.296 26.034 180.912 27.246 180.336 28.374C179.772 29.502 178.92 30.51 177.78 31.398C177.228 31.83 176.562 32.178 175.782 32.442C175.014 32.706 174.228 32.898 173.424 33.018C172.62 33.138 171.882 33.198 171.21 33.198C170.19 33.198 169.194 33.192 168.222 33.18C167.262 33.168 166.296 33.15 165.324 33.126C164.364 33.102 163.362 33.078 162.318 33.054L162.066 32.82V8.592L162.318 8.358C163.35 8.322 164.346 8.292 165.306 8.268C166.278 8.244 167.25 8.232 168.222 8.232C169.194 8.22 170.19 8.214 171.21 8.214C171.882 8.214 172.62 8.274 173.424 8.394C174.24 8.514 175.032 8.706 175.8 8.97C176.58 9.234 177.24 9.582 177.78 10.014C178.908 10.902 179.754 11.91 180.318 13.038C180.894 14.166 181.278 15.378 181.47 16.674C181.674 17.958 181.776 19.296 181.776 20.688ZM176.142 20.688C176.142 19.752 176.082 18.804 175.962 17.844C175.854 16.884 175.632 16.002 175.296 15.198C174.96 14.382 174.462 13.728 173.802 13.236C173.154 12.744 172.29 12.498 171.21 12.498C170.586 12.498 169.986 12.498 169.41 12.498C168.834 12.486 168.21 12.474 167.538 12.462V28.932C168.21 28.92 168.834 28.914 169.41 28.914C169.986 28.914 170.586 28.914 171.21 28.914C172.29 28.914 173.154 28.668 173.802 28.176C174.462 27.672 174.96 27.018 175.296 26.214C175.632 25.398 175.854 24.51 175.962 23.55C176.082 22.578 176.142 21.624 176.142 20.688ZM191.498 8.412C191.942 8.352 192.47 8.304 193.082 8.268C193.694 8.232 194.228 8.214 194.684 8.214C195.128 8.214 195.656 8.232 196.268 8.268C196.892 8.304 197.42 8.364 197.852 8.448L205.646 32.64C205.262 32.856 204.77 33.018 204.17 33.126C203.57 33.246 203.006 33.306 202.478 33.306C201.614 33.306 200.936 33.108 200.444 32.712C199.952 32.304 199.538 31.512 199.202 30.336L196.448 20.742C196.16 19.722 195.83 18.546 195.458 17.214C195.098 15.882 194.774 14.634 194.486 13.47H194.27C194.09 14.442 193.826 15.558 193.478 16.818C193.142 18.066 192.836 19.158 192.56 20.094L188.708 33.036C188.372 33.12 188.006 33.174 187.61 33.198C187.214 33.222 186.806 33.234 186.386 33.234C185.966 33.234 185.498 33.204 184.982 33.144C184.466 33.084 184.046 32.994 183.722 32.874L183.524 32.586L191.498 8.412ZM191.822 27.744C191.654 27.744 191.45 27.744 191.21 27.744C190.97 27.732 190.73 27.726 190.49 27.726C190.262 27.714 190.064 27.708 189.896 27.708H187.034L188.726 23.406H191.228C191.396 23.406 191.594 23.406 191.822 23.406C192.05 23.394 192.278 23.388 192.506 23.388C192.734 23.376 192.926 23.37 193.082 23.37H195.836C196.004 23.37 196.202 23.376 196.43 23.388C196.658 23.388 196.886 23.394 197.114 23.406C197.342 23.406 197.54 23.406 197.708 23.406H200.3L201.686 27.708H198.842C198.674 27.708 198.47 27.714 198.23 27.726C197.99 27.726 197.75 27.732 197.51 27.744C197.282 27.744 197.084 27.744 196.916 27.744H191.822ZM206.628 30.858C206.7 30.078 206.94 29.31 207.348 28.554C207.768 27.798 208.242 27.192 208.77 26.736C209.79 27.348 210.942 27.894 212.226 28.374C213.51 28.854 214.788 29.094 216.06 29.094C217.164 29.094 217.968 28.836 218.472 28.32C218.976 27.792 219.228 27.21 219.228 26.574C219.228 26.118 219.078 25.638 218.778 25.134C218.49 24.618 217.836 24.15 216.816 23.73L212.478 21.912C210.99 21.288 209.76 20.46 208.788 19.428C207.828 18.396 207.348 17.028 207.348 15.324C207.348 13.848 207.732 12.552 208.5 11.436C209.268 10.32 210.306 9.45 211.614 8.826C212.934 8.202 214.404 7.89 216.024 7.89C217.704 7.89 219.282 8.106 220.758 8.538C222.234 8.97 223.44 9.432 224.376 9.924C224.328 10.704 224.136 11.466 223.8 12.21C223.464 12.942 223.032 13.554 222.504 14.046C221.58 13.602 220.512 13.2 219.3 12.84C218.088 12.48 217.002 12.3 216.042 12.3C214.974 12.3 214.194 12.546 213.702 13.038C213.222 13.53 212.982 14.052 212.982 14.604C212.982 15.108 213.15 15.552 213.486 15.936C213.834 16.308 214.41 16.662 215.214 16.998L219.624 18.834C220.764 19.302 221.736 19.89 222.54 20.598C223.356 21.294 223.974 22.092 224.394 22.992C224.826 23.88 225.042 24.846 225.042 25.89C225.042 27.33 224.694 28.626 223.998 29.778C223.314 30.93 222.276 31.842 220.884 32.514C219.504 33.186 217.77 33.522 215.682 33.522C214.218 33.522 212.67 33.294 211.038 32.838C209.418 32.37 207.948 31.71 206.628 30.858ZM236.171 22.632C236.015 22.632 235.823 22.632 235.595 22.632C235.367 22.62 235.139 22.614 234.911 22.614C234.695 22.602 234.503 22.596 234.335 22.596C233.795 22.596 233.243 22.602 232.679 22.614C232.127 22.626 231.581 22.632 231.041 22.632V18.024C231.581 18.024 232.127 18.03 232.679 18.042C233.243 18.054 233.795 18.06 234.335 18.06C234.503 18.06 234.695 18.06 234.911 18.06C235.139 18.048 235.367 18.042 235.595 18.042C235.823 18.03 236.015 18.024 236.171 18.024H240.599C240.767 18.024 240.959 18.03 241.175 18.042C241.403 18.042 241.625 18.048 241.841 18.06C242.069 18.06 242.261 18.06 242.417 18.06C242.957 18.06 243.509 18.054 244.073 18.042C244.637 18.03 245.189 18.024 245.729 18.024V22.632C245.189 22.632 244.637 22.626 244.073 22.614C243.509 22.602 242.957 22.596 242.417 22.596C242.261 22.596 242.069 22.602 241.841 22.614C241.625 22.614 241.403 22.62 241.175 22.632C240.959 22.632 240.767 22.632 240.599 22.632H236.171ZM234.371 33C233.927 33.084 233.447 33.138 232.931 33.162C232.427 33.186 231.989 33.198 231.617 33.198C231.281 33.198 230.849 33.186 230.321 33.162C229.793 33.138 229.307 33.084 228.863 33V8.412C229.307 8.328 229.793 8.274 230.321 8.25C230.849 8.226 231.281 8.214 231.617 8.214C231.989 8.214 232.427 8.226 232.931 8.25C233.447 8.274 233.927 8.328 234.371 8.412V15.396C234.371 15.9 234.365 16.35 234.353 16.746C234.341 17.13 234.335 17.568 234.335 18.06V22.596C234.335 23.076 234.341 23.514 234.353 23.91C234.365 24.306 234.371 24.756 234.371 25.26V33ZM242.381 25.26C242.381 24.756 242.387 24.306 242.399 23.91C242.411 23.514 242.417 23.076 242.417 22.596V18.06C242.417 17.568 242.411 17.13 242.399 16.746C242.387 16.35 242.381 15.9 242.381 15.396V8.412C242.837 8.328 243.317 8.274 243.821 8.25C244.325 8.226 244.763 8.214 245.135 8.214C245.483 8.214 245.921 8.226 246.449 8.25C246.977 8.274 247.457 8.328 247.889 8.412V33C247.421 33.084 246.953 33.138 246.485 33.162C246.017 33.186 245.585 33.198 245.189 33.198C244.817 33.198 244.373 33.186 243.857 33.162C243.341 33.138 242.849 33.084 242.381 33V25.26Z" fill="#001487"/>
</svg>
